<svg width="19" height="19" viewBox="0 0 19 19" fill="none" xmlns="http://www.w3.org/2000/svg">
<path d="M6.29197 0.594049C4.48732 1.2201 2.931 2.40836 1.85159 3.98429C0.772189 5.56023 0.226602 7.44078 0.294969 9.3497C0.363337 11.2586 1.04206 13.0953 2.23143 14.59C3.42081 16.0847 5.05815 17.1586 6.90296 17.6539C8.39859 18.0398 9.96557 18.0568 11.4692 17.7033C12.8313 17.3973 14.0907 16.7429 15.1239 15.804C16.1992 14.797 16.9798 13.5159 17.3816 12.0985C17.8183 10.5572 17.8961 8.93621 17.6088 7.36014H9.21006V10.8441H14.074C13.9768 11.3997 13.7685 11.9301 13.4616 12.4034C13.1546 12.8766 12.7553 13.2831 12.2876 13.5985C11.6937 13.9914 11.0241 14.2557 10.322 14.3746C9.61779 14.5055 8.89548 14.5055 8.19127 14.3746C7.47753 14.227 6.80235 13.9324 6.20871 13.5096C5.25504 12.8345 4.53896 11.8755 4.16266 10.7693C3.78 9.6424 3.78 8.42071 4.16266 7.29382C4.43052 6.50393 4.87332 5.78473 5.45802 5.18991C6.12714 4.49672 6.97427 4.00122 7.90645 3.75778C8.83864 3.51434 9.81987 3.53237 10.7425 3.80988C11.4632 4.03113 12.1223 4.41769 12.6672 4.93874C13.2156 4.39313 13.7631 3.8461 14.3097 3.29766C14.5919 3.00275 14.8995 2.72195 15.1775 2.41998C14.3458 1.64597 13.3695 1.0437 12.3045 0.64767C10.3653 -0.0564692 8.24345 -0.0753923 6.29197 0.594049Z" fill="white"/>
<path d="M6.29196 0.594064C8.24328 -0.0758329 10.3651 -0.0574079 12.3045 0.646273C13.3696 1.04499 14.3455 1.65016 15.1761 2.42705C14.8939 2.72902 14.5961 3.01123 14.3083 3.30473C13.7608 3.85129 13.2137 4.39596 12.6672 4.93876C12.1223 4.4177 11.4632 4.03114 10.7425 3.8099C9.82017 3.53141 8.83897 3.51234 7.90653 3.75478C6.9741 3.99723 6.12645 4.49181 5.4566 5.18428C4.8719 5.7791 4.4291 6.4983 4.16124 7.28819L1.23608 5.02342C2.28311 2.94711 4.09597 1.3589 6.29196 0.594064Z" fill="#E33629"/>
<path d="M0.460003 7.26704C0.617227 6.48784 0.87825 5.73324 1.23609 5.02344L4.16125 7.29385C3.77858 8.42074 3.77858 9.64243 4.16125 10.7693C3.18667 11.5219 2.21161 12.2782 1.23609 13.0383C0.340275 11.2552 0.0670656 9.2235 0.460003 7.26704Z" fill="#F8BD00"/>
<path d="M9.21004 7.35876H17.6087C17.896 8.93484 17.8183 10.5558 17.3816 12.0971C16.9797 13.5145 16.1992 14.7956 15.1238 15.8026C14.1798 15.066 13.2316 14.3351 12.2876 13.5985C12.7556 13.2828 13.1551 12.8759 13.462 12.4021C13.769 11.9283 13.9772 11.3975 14.074 10.8413H9.21004C9.20863 9.68139 9.21004 8.52008 9.21004 7.35876Z" fill="#587DBD"/>
<path d="M1.23468 13.0383C2.2102 12.2857 3.18525 11.5294 4.15983 10.7693C4.53688 11.8758 5.25399 12.8349 6.20871 13.5096C6.80419 13.9305 7.48083 14.2226 8.1955 14.3675C8.8997 14.4985 9.62201 14.4985 10.3262 14.3675C11.0284 14.2487 11.6979 13.9843 12.2918 13.5914C13.2359 14.328 14.1841 15.0589 15.1281 15.7955C14.095 16.7349 12.8357 17.3899 11.4734 17.6962C9.9698 18.0497 8.40282 18.0328 6.90719 17.6469C5.72429 17.331 4.61938 16.7742 3.66172 16.0114C2.6481 15.2067 1.82021 14.1925 1.23468 13.0383Z" fill="#319F43"/>
</svg>
