<svg width="24" height="25" viewBox="0 0 24 25" fill="none" xmlns="http://www.w3.org/2000/svg">
<path fill-rule="evenodd" clip-rule="evenodd" d="M4.28571 15.7286C4.62671 15.7286 4.95373 15.8641 5.19485 16.1052C5.43597 16.3463 5.57143 16.6733 5.57143 17.0143C5.57143 17.3553 5.43597 17.6823 5.19485 17.9234C4.95373 18.1646 4.62671 18.3 4.28571 18.3C3.94472 18.3 3.6177 18.1646 3.37658 17.9234C3.13546 17.6823 3 17.3553 3 17.0143C3 16.6733 3.13546 16.3463 3.37658 16.1052C3.6177 15.8641 3.94472 15.7286 4.28571 15.7286ZM19.7134 16.1572C20.1874 16.1572 20.5714 16.5377 20.5714 17.0143C20.5714 17.4879 20.19 17.8715 19.7134 17.8715H7.71514C7.60245 17.8718 7.49079 17.8499 7.3866 17.8069C7.2824 17.764 7.18772 17.7009 7.10799 17.6212C7.02826 17.5416 6.96506 17.4469 6.92201 17.3428C6.87896 17.2386 6.85692 17.127 6.85714 17.0143C6.85714 16.5407 7.23857 16.1572 7.71514 16.1572H19.7134ZM4.28571 11.4429C4.62671 11.4429 4.95373 11.5783 5.19485 11.8195C5.43597 12.0606 5.57143 12.3876 5.57143 12.7286C5.57143 13.0696 5.43597 13.3966 5.19485 13.6377C4.95373 13.8788 4.62671 14.0143 4.28571 14.0143C3.94472 14.0143 3.6177 13.8788 3.37658 13.6377C3.13546 13.3966 3 13.0696 3 12.7286C3 12.3876 3.13546 12.0606 3.37658 11.8195C3.6177 11.5783 3.94472 11.4429 4.28571 11.4429ZM19.7134 11.8715C20.1874 11.8715 20.5714 12.252 20.5714 12.7286C20.5714 13.2022 20.19 13.5857 19.7134 13.5857H7.71514C7.60245 13.5861 7.49079 13.5641 7.3866 13.5212C7.2824 13.4783 7.18772 13.4151 7.10799 13.3355C7.02826 13.2558 6.96506 13.1612 6.92201 13.0571C6.87896 12.9529 6.85692 12.8413 6.85714 12.7286C6.85714 12.255 7.23857 11.8715 7.71514 11.8715H19.7134ZM4.28571 7.15717C4.62671 7.15717 4.95373 7.29262 5.19485 7.53374C5.43597 7.77486 5.57143 8.10189 5.57143 8.44288C5.57143 8.78387 5.43597 9.1109 5.19485 9.35202C4.95373 9.59314 4.62671 9.72859 4.28571 9.72859C3.94472 9.72859 3.6177 9.59314 3.37658 9.35202C3.13546 9.1109 3 8.78387 3 8.44288C3 8.10189 3.13546 7.77486 3.37658 7.53374C3.6177 7.29262 3.94472 7.15717 4.28571 7.15717ZM19.7134 7.58574C20.1874 7.58574 20.5714 7.96631 20.5714 8.44288C20.5714 8.91645 20.19 9.30002 19.7134 9.30002H7.71514C7.60245 9.30036 7.49079 9.27843 7.3866 9.23548C7.2824 9.19254 7.18772 9.12943 7.10799 9.04978C7.02826 8.97013 6.96506 8.87551 6.92201 8.77136C6.87896 8.66721 6.85692 8.55558 6.85714 8.44288C6.85714 7.96931 7.23857 7.58574 7.71514 7.58574H19.7134Z" fill="#282A2E"/>
</svg>
