<svg width="18" height="18" viewBox="0 0 18 18" fill="none" xmlns="http://www.w3.org/2000/svg">
<g clip-path="url(#clip0_2_95)">
<path d="M16.5938 0.5625H1.40625C1.18268 0.563168 0.968456 0.652277 0.810366 0.810366C0.652277 0.968456 0.563168 1.18268 0.5625 1.40625V16.5938C0.563168 16.8173 0.652277 17.0315 0.810366 17.1896C0.968456 17.3477 1.18268 17.4368 1.40625 17.4375H16.5938C16.8173 17.4368 17.0315 17.3477 17.1896 17.1896C17.3477 17.0315 17.4368 16.8173 17.4375 16.5938V1.40625C17.4368 1.18268 17.3477 0.968456 17.1896 0.810366C17.0315 0.652277 16.8173 0.563168 16.5938 0.5625ZM3.9375 16.875H1.40625C1.33166 16.875 1.26012 16.8454 1.20738 16.7926C1.15463 16.7399 1.125 16.6683 1.125 16.5938V3.375H3.9375V16.875ZM16.875 16.5938C16.875 16.6683 16.8454 16.7399 16.7926 16.7926C16.7399 16.8454 16.6683 16.875 16.5938 16.875H4.5V3.375H16.875V16.5938ZM16.875 2.8125H1.125V1.40625C1.125 1.33166 1.15463 1.26012 1.20738 1.20738C1.26012 1.15463 1.33166 1.125 1.40625 1.125H16.5938C16.6683 1.125 16.7399 1.15463 16.7926 1.20738C16.8454 1.26012 16.875 1.33166 16.875 1.40625V2.8125Z" fill="#282A2E"/>
<path d="M4.5 3.5H4V1H4.5V3.5Z" fill="#282A2E"/>
</g>
<defs>
<clipPath id="clip0_2_95">
<rect width="18" height="18" fill="white"/>
</clipPath>
</defs>
</svg>
