<svg width="20" height="20" viewBox="0 0 20 20" fill="none" xmlns="http://www.w3.org/2000/svg">
<path d="M8.63519 1.8566H1.39662C1.00775 1.8566 0.692871 1.54172 0.692871 1.15285C0.692871 0.763974 1.00775 0.449097 1.39662 0.449097H8.63519C9.02406 0.449097 9.33894 0.763974 9.33894 1.15285C9.33894 1.54172 9.02366 1.8566 8.63519 1.8566Z" fill="#707070"/>
<path d="M8.63507 5.39544H1.3965C1.00763 5.39544 0.692749 5.08057 0.692749 4.6917C0.692749 4.30282 1.00763 3.98795 1.3965 3.98795H8.63507C9.02394 3.98795 9.33882 4.30282 9.33882 4.6917C9.33882 5.08057 9.02354 5.39544 8.63507 5.39544Z" fill="#707070"/>
<path d="M8.63507 8.93429H1.3965C1.00763 8.93429 0.692749 8.61942 0.692749 8.23054C0.692749 7.84167 1.00763 7.52679 1.3965 7.52679H8.63507C9.02394 7.52679 9.33882 7.84167 9.33882 8.23054C9.33882 8.61942 9.02354 8.93429 8.63507 8.93429Z" fill="#707070"/>
<path d="M7.35549 19.5509H2.67615C1.58233 19.5509 0.692383 18.6613 0.692383 17.5675V12.8882C0.692383 11.7944 1.58233 10.9048 2.67615 10.9048H7.35549C8.44932 10.9048 9.33886 11.7944 9.33886 12.8882V17.5679C9.33886 18.6613 8.44932 19.5509 7.35549 19.5509ZM2.67615 12.3123C2.35846 12.3123 2.09988 12.5709 2.09988 12.8882V17.5679C2.09988 17.8852 2.35846 18.1438 2.67615 18.1438H7.35549C7.67278 18.1438 7.93136 17.8852 7.93136 17.5679V12.8882C7.93136 12.5709 7.67278 12.3123 7.35549 12.3123H2.67615Z" fill="#707070"/>
<path d="M17.8843 19.5509H13.0586C12.0054 19.5509 11.1484 18.6939 11.1484 17.6407V2.35927C11.1484 1.30606 12.0054 0.449097 13.0586 0.449097H17.8843C18.9375 0.449097 19.7945 1.30606 19.7945 2.35927V17.6407C19.7945 18.6939 18.9375 19.5509 17.8843 19.5509ZM13.0586 1.8566C12.7815 1.8566 12.5559 2.0822 12.5559 2.35927V17.6407C12.5559 17.9178 12.7815 18.1434 13.0586 18.1434H17.8843C18.1614 18.1434 18.387 17.9178 18.387 17.6407V2.35927C18.387 2.0822 18.1614 1.8566 17.8843 1.8566H13.0586Z" fill="#707070"/>
</svg>
