<svg width="27" height="20" viewBox="0 0 27 20" fill="none" xmlns="http://www.w3.org/2000/svg">
<path d="M22.1722 5.28698C22.0513 4.84031 21.8155 4.43309 21.4883 4.10588C21.1611 3.77867 20.7539 3.54288 20.3073 3.42199C18.672 2.97601 12.0907 2.97601 12.0907 2.97601C12.0907 2.97601 5.50903 2.98951 3.87378 3.43549C3.4271 3.55638 3.01989 3.79219 2.69269 4.11941C2.36549 4.44664 2.12973 4.85387 2.00887 5.30056C1.51425 8.20608 1.32238 12.6334 2.02246 15.4227C2.14332 15.8694 2.37909 16.2766 2.70629 16.6038C3.03349 16.931 3.44069 17.1668 3.88736 17.2877C5.52261 17.7337 12.1041 17.7337 12.1041 17.7337C12.1041 17.7337 18.6855 17.7337 20.3207 17.2877C20.7674 17.1668 21.1746 16.931 21.5018 16.6038C21.829 16.2766 22.0648 15.8694 22.1857 15.4227C22.7074 12.5131 22.8681 8.08845 22.1722 5.28698Z" fill="#FF0000"/>
<path d="M9.99591 13.5172L15.4556 10.3548L9.99591 7.1925V13.5172Z" fill="white"/>
</svg>
