<svg width="19" height="19" viewBox="0 0 19 19" fill="none" xmlns="http://www.w3.org/2000/svg">
<g clip-path="url(#clip0_2_225)">
<path d="M18.6338 9.03086C18.6338 4.04329 14.5905 0 9.60295 0C4.61537 0 0.572083 4.04329 0.572083 9.03086C0.572083 13.5384 3.87456 17.2746 8.19187 17.952V11.6413H5.89888V9.03086H8.19187V7.04125C8.19187 4.77789 9.54015 3.52768 11.603 3.52768C12.591 3.52768 13.6245 3.70406 13.6245 3.70406V5.9265H12.4858C11.3639 5.9265 11.014 6.62266 11.014 7.33687V9.03086H13.5187L13.1183 11.6413H11.014V17.952C15.3313 17.2746 18.6338 13.5385 18.6338 9.03086Z" fill="#1877F2"/>
<path d="M13.1183 11.6414L13.5187 9.03089H11.014V7.3369C11.014 6.62261 11.3639 5.92653 12.4858 5.92653H13.6245V3.70409C13.6245 3.70409 12.591 3.52771 11.6029 3.52771C9.54014 3.52771 8.19186 4.77792 8.19186 7.04128V9.03089H5.89886V11.6414H8.19186V17.952C8.65865 18.0252 9.13044 18.0619 9.60293 18.0618C10.0754 18.0619 10.5472 18.0252 11.014 17.952V11.6414H13.1183Z" fill="white"/>
</g>
<defs>
<clipPath id="clip0_2_225">
<rect width="18.0617" height="18.0617" fill="white" transform="translate(0.572083)"/>
</clipPath>
</defs>
</svg>
