<svg width="19" height="19" viewBox="0 0 19 19" fill="none" xmlns="http://www.w3.org/2000/svg">
<g clip-path="url(#clip0_2_319)">
<path d="M17.7909 10.3794C17.8447 10.0023 17.8725 9.622 17.8741 9.24111C17.874 6.9482 16.9631 4.74921 15.3418 3.12788C13.7204 1.50656 11.5214 0.595689 9.22852 0.595651C8.8477 0.597237 8.46738 0.625006 8.09031 0.678739C5.95922 -0.469786 3.327 -0.0839875 1.61525 1.62791C-0.096504 3.33981 -0.482375 5.97181 0.66615 8.1029C0.612417 8.47997 0.584649 8.86022 0.58299 9.24111C0.58299 14.016 4.45375 17.8866 9.22852 17.8866C9.60934 17.8851 9.98973 17.8573 10.3668 17.8036C12.4978 18.9521 15.13 18.5663 16.8419 16.8544C18.5536 15.1426 18.9395 12.5104 17.7909 10.3794Z" fill="white"/>
<path d="M5.48126 10.9676C8.50437 10.9676 10.9551 8.51694 10.9551 5.49383C10.9551 2.47073 8.50437 0.0200195 5.48126 0.0200195C2.45816 0.0200195 0.00744629 2.47073 0.00744629 5.49383C0.00744629 8.51694 2.45816 10.9676 5.48126 10.9676Z" fill="url(#paint0_linear_2_319)"/>
<path d="M12.9758 18.4622C15.9989 18.4622 18.4496 16.0115 18.4496 12.9884C18.4496 9.9653 15.9989 7.51459 12.9758 7.51459C9.95272 7.51459 7.50201 9.9653 7.50201 12.9884C7.50201 16.0115 9.95272 18.4622 12.9758 18.4622Z" fill="url(#paint1_linear_2_319)"/>
<mask id="mask0_2_319" style="mask-type:luminance" maskUnits="userSpaceOnUse" x="0" y="0" width="19" height="19">
<path d="M12.9756 7.51453C11.997 7.51428 11.0363 7.77709 10.194 8.27545C11.603 5.89964 11.0234 2.84635 8.8417 1.15205C6.66013 -0.542388 3.55852 -0.348154 1.60522 1.60515C-0.348013 3.55838 -0.542247 6.66006 1.15212 8.84163C2.84642 11.0233 5.89964 11.6029 8.27559 10.1939C7.01412 12.3319 7.34928 15.0511 9.0922 16.8188C10.8352 18.5864 13.5494 18.9598 15.7049 17.7285C17.8605 16.4972 18.9176 13.9695 18.2802 11.5703C17.6429 9.17103 15.4709 7.50111 12.9883 7.50176L12.9756 7.51453Z" fill="white"/>
</mask>
<g mask="url(#mask0_2_319)">
<path d="M9.05546 19.8625C14.7044 19.8625 19.2837 15.2832 19.2837 9.63426C19.2837 3.98535 14.7044 -0.593994 9.05546 -0.593994C3.40655 -0.593994 -1.17279 3.98535 -1.17279 9.63426C-1.17279 15.2832 3.40655 19.8625 9.05546 19.8625Z" fill="url(#paint2_radial_2_319)"/>
</g>
<path d="M9.22866 17.8866C14.0035 17.8866 17.8742 14.0159 17.8742 9.24111C17.8742 4.46632 14.0035 0.595581 9.22866 0.595581C4.45387 0.595581 0.58313 4.46632 0.58313 9.24111C0.58313 14.0159 4.45387 17.8866 9.22866 17.8866Z" fill="url(#paint3_linear_2_319)"/>
<path d="M9.22866 17.8866C14.0035 17.8866 17.8742 14.0159 17.8742 9.24111C17.8742 4.46632 14.0035 0.595581 9.22866 0.595581C4.45387 0.595581 0.58313 4.46632 0.58313 9.24111C0.58313 14.0159 4.45387 17.8866 9.22866 17.8866Z" fill="url(#paint4_linear_2_319)"/>
<path d="M6.07624 8.17972C5.87293 7.79845 5.77161 7.37112 5.78211 6.93916C5.76905 6.39321 5.95547 5.86122 6.30646 5.44285C6.67576 5.02617 7.14747 4.71316 7.6749 4.53479C8.24784 4.33255 8.85142 4.23088 9.45899 4.23424C9.85722 4.23152 10.255 4.26145 10.6483 4.32375C10.9288 4.37074 11.2048 4.44133 11.4733 4.53479C11.7172 4.61903 11.9368 4.76174 12.1128 4.95045C12.2471 5.10186 12.3201 5.29799 12.3174 5.5004C12.3223 5.60652 12.3062 5.71257 12.27 5.81243C12.2338 5.9123 12.1782 6.00402 12.1064 6.08231C12.0394 6.15365 11.958 6.20992 11.8676 6.2474C11.7772 6.28488 11.6798 6.3027 11.582 6.2997C11.4451 6.29766 11.3101 6.26718 11.1855 6.21019C10.8843 6.07676 10.5745 5.96351 10.2583 5.8712C9.96408 5.79429 9.66078 5.75774 9.35672 5.76258C8.96264 5.74935 8.57273 5.8468 8.2312 6.04387C8.08745 6.13119 7.96997 6.25573 7.89118 6.40432C7.81239 6.55292 7.77522 6.72004 7.78359 6.88802C7.78128 7.10652 7.86381 7.31739 8.01382 7.47628C8.19732 7.66556 8.41409 7.81946 8.65328 7.93031C8.91546 8.05819 9.29275 8.23085 9.82986 8.44831L9.99611 8.51221C10.5034 8.70555 10.9897 8.94978 11.4477 9.24119C11.8126 9.47774 12.1205 9.79222 12.3493 10.162C12.5743 10.5499 12.6872 10.9927 12.6755 11.4409C12.6936 11.9901 12.5344 12.5304 12.2215 12.982C11.9004 13.4165 11.4541 13.7423 10.9425 13.9157C10.3375 14.1314 9.69832 14.2354 9.0561 14.2226C8.17804 14.2517 7.30446 14.0857 6.49825 13.7366C6.29173 13.6437 6.10994 13.5035 5.96755 13.3274C5.85559 13.1614 5.79753 12.9649 5.8013 12.7647C5.79429 12.6592 5.81072 12.5534 5.84941 12.455C5.88811 12.3566 5.94811 12.268 6.0251 12.1956C6.18496 12.0541 6.39377 11.9806 6.60701 11.9909C6.84541 11.9943 7.07971 12.0535 7.29119 12.1636C7.55337 12.2914 7.75799 12.3938 7.93066 12.4577C8.10181 12.5301 8.27956 12.5857 8.46143 12.6239C8.68583 12.675 8.91559 12.6986 9.14568 12.6943C9.55294 12.7243 9.95842 12.6162 10.2967 12.3874C10.4244 12.2896 10.5266 12.1623 10.5945 12.0164C10.6625 11.8706 10.6941 11.7104 10.6867 11.5497C10.6929 11.3129 10.6056 11.0832 10.4437 10.9102C10.2351 10.6976 9.99323 10.5205 9.72752 10.3859C9.41421 10.2196 8.96659 10.0214 8.39752 9.77838C7.88613 9.5748 7.39569 9.32209 6.93309 9.0238C6.58718 8.79372 6.28562 8.53861 6.07624 8.17972Z" fill="white"/>
</g>
<defs>
<linearGradient id="paint0_linear_2_319" x1="461.702" y1="6.41344" x2="633.076" y2="1088.39" gradientUnits="userSpaceOnUse">
<stop offset="0.01" stop-color="#00B7F0"/>
<stop offset="0.34" stop-color="#009DE5"/>
<stop offset="0.76" stop-color="#0082D9"/>
<stop offset="1" stop-color="#0078D4"/>
</linearGradient>
<linearGradient id="paint1_linear_2_319" x1="80.4023" y1="828.587" x2="1029.36" y2="281.205" gradientUnits="userSpaceOnUse">
<stop stop-color="#0078D4"/>
<stop offset="0.37" stop-color="#007AD5"/>
<stop offset="0.57" stop-color="#0082D9"/>
<stop offset="0.74" stop-color="#0090DF"/>
<stop offset="0.88" stop-color="#00A3E7"/>
<stop offset="1" stop-color="#00BCF2"/>
</linearGradient>
<radialGradient id="paint2_radial_2_319" cx="0" cy="0" r="1" gradientUnits="userSpaceOnUse" gradientTransform="translate(991.766 1022.23) scale(1023.25 1023.25)">
<stop/>
<stop offset="1" stop-opacity="0"/>
</radialGradient>
<linearGradient id="paint3_linear_2_319" x1="526.854" y1="279.397" x2="1391.41" y2="1777.03" gradientUnits="userSpaceOnUse">
<stop stop-color="#00B7F0"/>
<stop offset="1" stop-color="#007CC1"/>
</linearGradient>
<linearGradient id="paint4_linear_2_319" x1="789.678" y1="1726.5" x2="940.594" y2="3.79446" gradientUnits="userSpaceOnUse">
<stop stop-color="#0078D4"/>
<stop offset="1" stop-color="#00BCF2"/>
</linearGradient>
<clipPath id="clip0_2_319">
<rect width="19" height="19" fill="white"/>
</clipPath>
</defs>
</svg>
