<svg width="23" height="19" viewBox="0 0 23 19" fill="none" xmlns="http://www.w3.org/2000/svg">
<g clip-path="url(#clip0_2_358)">
<path d="M18.5463 3.65729C17.8722 3.9431 17.1573 4.13069 16.4252 4.2138C17.1878 3.7764 17.7732 3.08375 18.0489 2.25847C17.324 2.67014 16.531 2.9602 15.704 3.11612C15.0303 2.42926 14.0706 2 13.0084 2C10.9689 2 9.31536 3.58246 9.31536 5.53422C9.31536 5.81126 9.34805 6.08097 9.41098 6.33971C6.34184 6.19228 3.62075 4.78525 1.7993 2.64695C1.48149 3.16894 1.29938 3.77613 1.29938 4.42375C1.29938 5.64996 1.95139 6.73169 2.94223 7.36553C2.35579 7.34798 1.78224 7.19639 1.2695 6.92341C1.26931 6.93822 1.26924 6.95304 1.26929 6.96789C1.26929 8.68029 2.54223 10.1088 4.23155 10.4335C3.68774 10.575 3.11733 10.5957 2.56388 10.494C3.03378 11.8982 4.39763 12.9199 6.01355 12.9485C4.74969 13.8964 3.15732 14.4615 1.42721 14.4615C1.12909 14.4615 0.835179 14.4447 0.546265 14.4121C2.18054 15.4149 4.12166 16 6.20712 16C12.9998 16 16.7142 10.6145 16.7142 5.9441C16.7142 5.79081 16.7106 5.63839 16.7035 5.48684C17.4264 4.98659 18.0504 4.36706 18.5463 3.65729Z" fill="#55ACEE"/>
</g>
<defs>
<clipPath id="clip0_2_358">
<rect width="22.1256" height="18.0617" fill="white" transform="translate(0.546265)"/>
</clipPath>
</defs>
</svg>
