<svg width="14" height="10" viewBox="0 0 14 10" fill="none" xmlns="http://www.w3.org/2000/svg">
<path fill-rule="evenodd" clip-rule="evenodd" d="M13.0813 1.40333L7.55737 5.76C7.40041 5.88386 7.20297 5.95164 6.99913 5.95164C6.79528 5.95164 6.59784 5.88386 6.44088 5.76L0.919625 1.40333C0.89 1.48826 0.874932 1.57718 0.875 1.66667V8.33333C0.875 8.55435 0.967187 8.76631 1.13128 8.92259C1.29538 9.07887 1.51794 9.16667 1.75 9.16667H12.25C12.4821 9.16667 12.7046 9.07887 12.8687 8.92259C13.0328 8.76631 13.125 8.55435 13.125 8.33333V1.66667C13.1253 1.57722 13.1106 1.48831 13.0813 1.40333ZM1.75 0H12.25C12.7141 0 13.1592 0.175595 13.4874 0.488155C13.8156 0.800716 14 1.22464 14 1.66667V8.33333C14 8.77536 13.8156 9.19928 13.4874 9.51184C13.1592 9.8244 12.7141 10 12.25 10H1.75C1.28587 10 0.840752 9.8244 0.512563 9.51184C0.184374 9.19928 0 8.77536 0 8.33333V1.66667C0 1.22464 0.184374 0.800716 0.512563 0.488155C0.840752 0.175595 1.28587 0 1.75 0ZM1.56625 0.833333L6.44525 4.66917C6.60151 4.79209 6.79773 4.85953 7.0004 4.85999C7.20308 4.86045 7.39963 4.79388 7.5565 4.67167L12.4845 0.833333H1.56625Z" fill="#707070"/>
</svg>
