<svg width="14" height="14" viewBox="0 0 14 14" fill="none" xmlns="http://www.w3.org/2000/svg">
<path fill-rule="evenodd" clip-rule="evenodd" d="M1.86263 1.36668C2.67674 0.557244 4.01732 0.701069 4.69899 1.61218L5.5432 2.7387C6.09844 3.4799 6.04893 4.51544 5.39001 5.17034L5.2308 5.32955C5.21275 5.39639 5.21092 5.46657 5.22545 5.53425C5.2676 5.80719 5.49571 6.38516 6.45097 7.33508C7.40624 8.28499 7.98823 8.51243 8.26517 8.55525C8.33496 8.56928 8.40702 8.56722 8.47589 8.54922L8.74883 8.27763C9.33483 7.69564 10.2339 7.5866 10.959 7.98062L12.2367 8.67633C13.3318 9.27036 13.6081 10.7581 12.7117 11.6498L11.7611 12.5944C11.4614 12.8921 11.0587 13.1403 10.5677 13.1864C9.3569 13.2995 6.53593 13.155 3.57046 10.2069C0.803006 7.45482 0.271857 5.05461 0.204293 3.87191C0.170845 3.27386 0.453144 2.76813 0.81304 2.41091L1.86263 1.36668ZM3.89624 2.21357C3.55708 1.76069 2.92559 1.72457 2.56971 2.07844L1.51945 3.12201C1.2987 3.34143 1.19301 3.58359 1.20638 3.81504C1.2599 4.75492 1.68803 6.92032 4.27822 9.49579C6.9955 12.197 9.50474 12.278 10.4747 12.187C10.6727 12.1689 10.8694 12.0659 11.0534 11.8833L12.0033 10.9381C12.3899 10.5541 12.305 9.85435 11.7578 9.55734L10.4801 8.8623C10.1269 8.67097 9.71346 8.73386 9.45658 8.9894L9.1522 9.29243L8.79766 8.93655C9.15221 9.29243 9.15154 9.2931 9.15087 9.2931L9.1502 9.29444L9.14819 9.29645L9.14351 9.30046L9.13347 9.30982C9.10525 9.33604 9.07481 9.35976 9.0425 9.38073C8.98898 9.41619 8.91807 9.45566 8.8291 9.48843C8.64848 9.556 8.409 9.59212 8.11332 9.54663C7.53334 9.45766 6.76471 9.06231 5.74322 8.04684C4.7224 7.03137 4.3237 6.26743 4.23406 5.68811C4.18791 5.39244 4.2247 5.15295 4.29293 4.97233C4.33049 4.8707 4.38425 4.77582 4.45214 4.69137L4.47355 4.66796L4.48291 4.65793L4.48693 4.65391L4.48894 4.6519L4.49027 4.65057L4.68293 4.45925C4.96924 4.1736 5.00938 3.70065 4.73979 3.34009L3.89624 2.21357Z" fill="#707070"/>
</svg>
