<svg width="28" height="28" viewBox="0 0 28 28" fill="none" xmlns="http://www.w3.org/2000/svg">
<path d="M24.9794 10.0211L23.735 5.04088C23.5824 4.429 23.0324 4 22.4012 4H5.60011C4.96898 4 4.41898 4.429 4.26498 5.04088L3.02061 10.0211C3.00686 10.0748 2.99998 10.1311 2.99998 10.1875C2.99998 12.0823 4.46436 13.625 6.26561 13.625C7.31198 13.625 8.24561 13.1039 8.84373 12.2954C9.44186 13.1039 10.3755 13.625 11.4219 13.625C12.4682 13.625 13.4019 13.1039 14 12.2954C14.5981 13.1039 15.5304 13.625 16.5781 13.625C17.6259 13.625 18.5581 13.1039 19.1562 12.2954C19.7544 13.1039 20.6866 13.625 21.7344 13.625C23.5356 13.625 25 12.0823 25 10.1875C25 10.1311 24.9931 10.0748 24.9794 10.0211Z" fill="#8F9AA8"/>
<path d="M19.1563 14.1915C19.9084 14.714 20.798 15 21.7344 15C22.4095 15 23.0461 14.8419 23.625 14.5724V21.875C23.625 22.634 23.009 23.25 22.25 23.25H16.75H11.25H5.75C4.991 23.25 4.375 22.634 4.375 21.875V14.5724C4.95388 14.8419 5.5905 15 6.26563 15C7.202 15 8.09163 14.714 8.84375 14.1915C10.348 15.2379 12.4958 15.2379 14 14.1915C15.5043 15.2379 17.652 15.2379 19.1563 14.1915Z" fill="#D7EAFF"/>
</svg>
