<svg width="28" height="28" viewBox="0 0 28 28" fill="none" xmlns="http://www.w3.org/2000/svg">
<rect width="28" height="28" rx="14" fill="#D7EAFF"/>
<path d="M14 18C15.66 18 17 16.66 17 15C17 13.88 16.39 12.9 15.5 12.39L5.79 6.77L11.32 16.35C11.82 17.33 12.83 18 14 18ZM14 5C12.19 5 10.5 5.5 9.03 6.32L11.13 7.53C12 7.19 13 7 14 7C18.42 7 22 10.58 22 15C22 17.21 21.11 19.21 19.66 20.65H19.65C19.5573 20.7425 19.4837 20.8524 19.4336 20.9734C19.3834 21.0943 19.3576 21.224 19.3576 21.355C19.3576 21.486 19.3834 21.6157 19.4336 21.7366C19.4837 21.8576 19.5573 21.9675 19.65 22.06C20.04 22.45 20.68 22.45 21.07 22.07C22 21.1426 22.7376 20.0406 23.2404 18.8273C23.7432 17.614 24.0014 16.3134 24 15C24 9.5 19.5 5 14 5ZM4 15C4 17.76 5.12 20.26 6.93 22.07C7.32 22.45 7.95 22.45 8.34 22.06C8.4327 21.9675 8.50625 21.8576 8.55643 21.7366C8.60661 21.6157 8.63244 21.486 8.63244 21.355C8.63244 21.224 8.60661 21.0943 8.55643 20.9734C8.50625 20.8524 8.4327 20.7425 8.34 20.65C7.5963 19.9093 7.00662 19.0287 6.605 18.059C6.20338 17.0893 5.99775 16.0496 6 15C6 14 6.19 13 6.54 12.1L5.33 10C4.5 11.5 4 13.18 4 15Z" fill="#8F9AA8"/>
</svg>
