<svg width="28" height="28" viewBox="0 0 28 28" fill="none" xmlns="http://www.w3.org/2000/svg">
<path d="M20.875 7.02113C20.875 6.4851 21.0923 5.97101 21.4791 5.59198C21.8659 5.21294 22.3905 5 22.9375 5C23.4845 5 24.0091 5.21294 24.3959 5.59198C24.7827 5.97101 25 6.4851 25 7.02113V21.8428C25 22.3788 24.7827 22.8929 24.3959 23.2719C24.0091 23.651 23.4845 23.8639 22.9375 23.8639C22.3905 23.8639 21.8659 23.651 21.4791 23.2719C21.0923 22.8929 20.875 22.3788 20.875 21.8428V7.02113ZM19.5 7.99667C16.6579 9.27672 13.2589 9.9922 9.875 10.228V18.6319C10.3745 18.6595 10.8732 18.6977 11.371 18.7464C14.1939 19.0213 16.9233 19.6465 19.5 20.8484V7.99667ZM8.5 18.5618V10.3008C7.565 10.3371 6.57638 10.3587 5.739 10.3722C5.01072 10.3821 4.31554 10.6719 3.80322 11.1792C3.29091 11.6866 3.00245 12.3708 3 13.0845V15.7794C3 17.2696 4.232 18.4688 5.74175 18.4863C5.9691 18.4891 6.19643 18.4927 6.42375 18.4971C7.11607 18.5107 7.8082 18.5322 8.5 18.5618ZM10.4112 20.0184C10.8031 20.0467 11.1936 20.0817 11.58 20.1235L11.9279 22.4006C11.9657 22.5955 11.9592 22.7961 11.9088 22.9883C11.8583 23.1804 11.7653 23.3592 11.6361 23.512C11.507 23.6648 11.3451 23.7877 11.1619 23.8721C10.9786 23.9565 10.7787 24.0001 10.5763 24H9.82275C9.55548 24 9.29401 23.9236 9.07032 23.7803C8.84663 23.6369 8.67043 23.4328 8.56325 23.1929L6.7565 19.8513C7.53235 19.8703 8.30791 19.899 9.083 19.9375C9.53262 19.9604 9.97675 19.9874 10.4112 20.0184Z" fill="#8F9AA8"/>
</svg>
