<svg width="28" height="28" viewBox="0 0 28 28" fill="none" xmlns="http://www.w3.org/2000/svg">
<rect width="28" height="28" rx="14" fill="#D7EAFF"/>
<path d="M16.6 10.075C16.6 9.35833 16.3627 8.78333 15.888 8.35C15.4133 7.91667 14.784 7.7 14 7.7C13.5167 7.7 13.0793 7.80433 12.688 8.013C12.2967 8.22167 11.959 8.52567 11.675 8.925C11.4083 9.30833 11.0457 9.52933 10.587 9.588C10.1283 9.64667 9.73267 9.52567 9.4 9.225C9.16667 9.00833 9.03767 8.74167 9.013 8.425C8.98833 8.10833 9.06733 7.80833 9.25 7.525C9.78333 6.725 10.4627 6.10433 11.288 5.663C12.1133 5.22167 13.0173 5.00067 14 5C15.6167 5 16.9293 5.45833 17.938 6.375C18.9467 7.29167 19.4507 8.49167 19.45 9.975C19.45 10.725 19.2917 11.4 18.975 12C18.6583 12.6 18.075 13.3083 17.225 14.125C16.6083 14.7083 16.1917 15.1627 15.975 15.488C15.7583 15.8133 15.6167 16.184 15.55 16.6C15.4833 17 15.3123 17.3333 15.037 17.6C14.7617 17.8667 14.4327 18 14.05 18C13.6673 18 13.3383 17.871 13.063 17.613C12.7877 17.355 12.65 17.034 12.65 16.65C12.65 16 12.7917 15.4043 13.075 14.863C13.3583 14.3217 13.8333 13.7507 14.5 13.15C15.35 12.4 15.9127 11.821 16.188 11.413C16.4633 11.005 16.6007 10.559 16.6 10.075ZM14 24C13.45 24 12.9793 23.8043 12.588 23.413C12.1967 23.0217 12.0007 22.5507 12 22C11.9993 21.4493 12.1953 20.9787 12.588 20.588C12.9807 20.1973 13.4513 20.0013 14 20C14.5487 19.9987 15.0197 20.1947 15.413 20.588C15.8063 20.9813 16.002 21.452 16 22C15.998 22.548 15.8023 23.019 15.413 23.413C15.0237 23.807 14.5527 24.0027 14 24Z" fill="#8F9AA8"/>
</svg>
