<svg width="23" height="19" viewBox="0 0 23 19" fill="none" xmlns="http://www.w3.org/2000/svg">
<path d="M20.6997 3.11912H14.731V1.85956C14.731 0.834223 13.9014 0 12.8818 0H9.30692C8.28731 0 7.45792 0.834223 7.45792 1.85956V3.11912H1.48897C0.667991 3.11912 3.8147e-06 3.79552 3.8147e-06 4.62706V6.83125C0.0402656 6.83125 8.73967 10.0885 8.73967 10.0885V9.2228C8.73967 9.01738 8.90519 8.85096 9.10954 8.85096H13.161C13.3651 8.85096 13.5308 9.01756 13.5308 9.2228V10.0823C13.5308 10.0823 22.1483 6.83108 22.1887 6.83108V4.62706C22.1887 3.79552 21.5207 3.11912 20.6997 3.11912ZM8.19748 3.11912V1.85956C8.19748 1.24436 8.69512 0.743858 9.30692 0.743858H12.8818C13.4936 0.743858 13.9912 1.24436 13.9912 1.85956V3.11912H8.19748Z" fill="#8F9AA8"/>
<path d="M13.5308 10.8769V12.0021C13.5308 12.2075 13.3653 12.3739 13.161 12.3739H9.10954C8.90537 12.3739 8.73967 12.2074 8.73967 12.0021V10.8827L3.8147e-06 7.59854V17.4596C3.8147e-06 18.2914 0.667991 18.9678 1.48897 18.9678H20.6997C21.5207 18.9678 22.1887 18.2914 22.1887 17.4598V7.5989L13.5308 10.8769Z" fill="#D7EAFF"/>
<path d="M9.47927 9.59497H12.7911V11.6302H9.47927V9.59497Z" fill="#8F9AA8"/>
</svg>
