<svg width="28" height="28" viewBox="0 0 28 28" fill="none" xmlns="http://www.w3.org/2000/svg">
<path d="M22.1667 3.50001H21V1.16667H18.6667V3.50001H9.33333V1.16667H7V3.50001H5.83333C5.21449 3.50001 4.621 3.74584 4.18342 4.18342C3.74583 4.62101 3.5 5.2145 3.5 5.83334V22.1667C3.5 22.7855 3.74583 23.379 4.18342 23.8166C4.621 24.2542 5.21449 24.5 5.83333 24.5H22.1667C23.45 24.5 24.5 23.45 24.5 22.1667V5.83334C24.5 4.55001 23.45 3.50001 22.1667 3.50001ZM14 7.00001C15.9367 7.00001 17.5 8.56334 17.5 10.5C17.5 12.4367 15.9367 14 14 14C12.0633 14 10.5 12.4367 10.5 10.5C10.5 8.56334 12.0633 7.00001 14 7.00001ZM21 21H7V19.8333C7 17.5 11.6667 16.2167 14 16.2167C16.3333 16.2167 21 17.5 21 19.8333V21Z" fill="#FD6C45"/>
</svg>
