<svg width="28" height="28" viewBox="0 0 28 28" fill="none" xmlns="http://www.w3.org/2000/svg">
<path d="M22.1667 5.83333C22.1667 5.21449 21.9208 4.621 21.4832 4.18342C21.0457 3.74583 20.4522 3.5 19.8333 3.5H14.2917C14.2143 3.5 14.1401 3.53073 14.0854 3.58543C14.0307 3.64013 14 3.71431 14 3.79167V9.33333C14 9.95217 13.7542 10.5457 13.3166 10.9832C12.879 11.4208 12.2855 11.6667 11.6667 11.6667H6.125C6.04764 11.6667 5.97346 11.6974 5.91876 11.7521C5.86406 11.8068 5.83333 11.881 5.83333 11.9583V22.1667C5.83333 22.7855 6.07916 23.379 6.51675 23.8166C6.95433 24.2542 7.54783 24.5 8.16666 24.5H19.8333C20.4522 24.5 21.0457 24.2542 21.4832 23.8166C21.9208 23.379 22.1667 22.7855 22.1667 22.1667V5.83333Z" fill="#D7EAFF"/>
<path d="M12.8333 9.33333V4.20466C12.8334 4.1469 12.8164 4.09041 12.7843 4.04235C12.7523 3.99429 12.7067 3.95683 12.6534 3.93471C12.6 3.91259 12.5413 3.90681 12.4846 3.91811C12.428 3.92941 12.376 3.95727 12.3352 3.99816L6.3315 10.0018C6.2906 10.0426 6.26274 10.0946 6.25144 10.1513C6.24015 10.2079 6.24592 10.2667 6.26804 10.32C6.29016 10.3734 6.32762 10.419 6.37569 10.451C6.42375 10.483 6.48024 10.5001 6.538 10.5H11.6667C11.9761 10.5 12.2728 10.3771 12.4916 10.1583C12.7104 9.9395 12.8333 9.64275 12.8333 9.33333Z" fill="#8F9AA8"/>
<path d="M18.0833 15.75H11.0833M18.0833 19.25H12.25" stroke="#8F9AA8" stroke-linecap="round"/>
</svg>
