<svg width="28" height="28" viewBox="0 0 28 28" fill="none" xmlns="http://www.w3.org/2000/svg">
<path fill-rule="evenodd" clip-rule="evenodd" d="M16.181 2.00029H12.2785C11.6905 1.99154 11.113 2.18404 10.651 2.54629C10.1834 2.91174 9.86085 3.43151 9.74102 4.01279L9.40152 5.64729C9.25335 5.72429 9.10752 5.80479 8.96402 5.88879L7.32777 5.31304L7.28927 5.30254C7.0326 5.23837 6.77243 5.21329 6.50877 5.22729C6.07103 5.22951 5.64131 5.34494 5.26138 5.56235C4.88144 5.77976 4.56421 6.09177 4.34052 6.46804L2.36477 9.72654C2.06298 10.2282 1.94939 10.8208 2.04428 11.3985C2.13917 11.9762 2.43637 12.5013 2.88277 12.88L4.13052 13.9913L2.82327 15.6398C2.39073 16.0263 2.10821 16.5529 2.02532 17.1271C1.94244 17.7012 2.06448 18.2862 2.37002 18.7793L4.34052 22.0343C4.56724 22.4131 4.88949 22.7257 5.27502 22.9408C5.58649 23.1163 5.93091 23.2253 6.2866 23.2612C6.64229 23.297 7.00155 23.2588 7.34177 23.149L8.99552 22.6065C9.13938 22.6917 9.28525 22.7734 9.43302 22.8515L9.77427 24.4895C9.89449 25.0702 10.217 25.5893 10.6843 25.9543C11.1482 26.3173 11.7228 26.51 12.3118 26.5003H16.2458C16.836 26.5108 17.4118 26.318 17.8768 25.9543C18.3444 25.5888 18.6669 25.0691 18.7868 24.4878L19.1263 22.8533C19.2768 22.7751 19.4249 22.6929 19.5708 22.6065L21.2193 23.1508C21.4802 23.2334 21.7524 23.2748 22.026 23.2733C22.4685 23.2738 22.9035 23.1594 23.2885 22.9413C23.6735 22.7232 23.9953 22.4054 24.2223 22.0255L26.1298 18.7705C26.4304 18.269 26.5432 17.6771 26.448 17.1002C26.3528 16.5232 26.0558 15.9989 25.61 15.6205L24.3273 14.4778V14.0263L25.6293 12.9185C26.0839 12.5339 26.384 11.9979 26.4744 11.4093C26.5648 10.8207 26.4393 10.2193 26.121 9.71604L24.1523 6.46804C23.9265 6.08654 23.6028 5.77504 23.2178 5.55804C22.9063 5.38257 22.5619 5.27348 22.2062 5.23764C21.8505 5.2018 21.4912 5.23998 21.151 5.34979L19.4973 5.89229C19.3538 5.80829 19.2079 5.72662 19.0598 5.64729L18.7185 4.01104C18.5995 3.43004 18.2758 2.91379 17.8085 2.54629C17.3448 2.18404 16.769 1.99154 16.181 2.00029ZM10.5385 10.538C9.55389 11.5225 9.00077 12.8579 9.00077 14.2503C9.00077 15.6427 9.55389 16.978 10.5385 17.9626C11.523 18.9472 12.8584 19.5003 14.2508 19.5003C15.6432 19.5003 16.9785 18.9472 17.9631 17.9626C18.9476 16.978 19.5008 15.6427 19.5008 14.2503C19.5008 12.8579 18.9476 11.5225 17.9631 10.538C16.9785 9.55341 15.6432 9.00029 14.2508 9.00029C12.8584 9.00029 11.523 9.55341 10.5385 10.538Z" fill="#D7EAFF"/>
<path d="M17.9999 14C17.5999 11.6 15.9999 10.5 13.9999 10.5C12 10.5 10 13 10.5 15C11 17 13 18 14.4999 18C15.9999 18 18.3999 16.4 17.9999 14Z" fill="#8F9AA8"/>
</svg>
