<svg width="24" height="24" viewBox="0 0 24 24" fill="none" xmlns="http://www.w3.org/2000/svg">
<path d="M18.438 4.954H16.5V3.546C16.5 3.284 16.27 3.034 16 3.046C15.8682 3.04856 15.7425 3.10206 15.6493 3.19528C15.5561 3.2885 15.5026 3.41419 15.5 3.546V4.954H8.50001V3.546C8.50001 3.284 8.27001 3.034 8.00001 3.046C7.8682 3.04856 7.74251 3.10206 7.64929 3.19528C7.55607 3.2885 7.50257 3.41419 7.50001 3.546V4.954H5.56201C4.89921 4.95479 4.26379 5.21844 3.79512 5.68711C3.32645 6.15578 3.06281 6.7912 3.06201 7.454V18.454C3.06201 19.833 4.18401 20.954 5.56201 20.954H18.437C19.816 20.954 20.937 19.833 20.937 18.454V7.454C20.937 6.79113 20.6738 6.1554 20.2051 5.68659C19.7365 5.21778 19.1009 4.95427 18.438 4.954ZM5.56201 5.954H7.50001V6.546C7.50001 6.808 7.73001 7.058 8.00001 7.046C8.27101 7.034 8.50001 6.826 8.50001 6.546V5.954H15.5V6.546C15.5 6.808 15.73 7.058 16 7.046C16.271 7.034 16.5 6.826 16.5 6.546V5.954H18.437C19.264 5.954 19.937 6.627 19.937 7.454V9.038H4.06201V7.454C4.06201 6.627 4.73501 5.954 5.56201 5.954ZM18.438 19.954H5.56201C4.73501 19.954 4.06201 19.281 4.06201 18.454V10.038H19.937V18.454C19.937 18.8517 19.7791 19.233 19.498 19.5143C19.2169 19.7956 18.8357 19.9537 18.438 19.954Z" fill="#A6A4A4"/>
</svg>
