<svg width="118" height="26" viewBox="0 0 118 26" fill="none" xmlns="http://www.w3.org/2000/svg">
<path d="M0 3.72736L6 9.22736V24.2274L0 18.7274V3.72736Z" fill="#EF7454"/>
<path d="M13.6948 3.26871L18.5589 7.86356L11.1761 15.679L8 8.72736L13.6948 3.26871Z" fill="#EF7454"/>
<g filter="url(#filter0_d_5_500)">
<path d="M18.2613 19.9342L13.0152 24.0876L8 19.2274L8 8.72736L18.2613 19.9342Z" fill="#EF7454"/>
</g>
<path d="M64.9999 7.5C65.9999 6.5 69 3 69.5 3C69.9999 3 72.9999 6.5 73.4999 7.5C74 8.5 72.5 9.5 71.4999 8.5C70.4999 7.5 69.4999 5.5 69.4999 5.5C69.4999 5.5 67.9999 7.5 66.9999 8.5C66 9.5 64 8.5 64.9999 7.5Z" fill="white" stroke="black" stroke-width="0.5"/>
<path d="M26 5.5C26 3 23 3 23 5.5V23C23 25 26 25 26 23V17.5L31.5 24C33 25 35 23.5 34 22L29 16.5C29 16.5 32.5 13.5 34 12C35.5 10.5 33.5 7.5 31 9.5C29.4754 10.7197 27.3929 12.8691 26 14.3607V5.5Z" fill="white" stroke="black" stroke-width="0.5"/>
<rect x="38.25" y="8.75" width="2.5" height="15.5" rx="1.25" fill="white" stroke="black" stroke-width="0.5"/>
<rect x="68.25" y="8.75" width="2.5" height="15.5" rx="1.25" fill="white" stroke="black" stroke-width="0.5"/>
<path d="M79 11C79 9 75.5 9.00001 75.5 11V24C75.5 26 77 26 78.5 24.5C80 23 88 14 89 12C90 10 88 9 86.5 10.5C85 12 79 19 79 19V11Z" fill="white" stroke="black" stroke-width="0.5"/>
<path d="M95.2691 23.0692C95.2691 25.0692 98.7691 25.0692 98.7691 23.0692V10.0692C98.7691 8.06923 97.2691 8.06923 95.7691 9.56923C94.2691 11.0692 86.2691 20.0692 85.2691 22.0692C84.2691 24.0692 86.2691 25.0692 87.7691 23.5692C89.2691 22.0692 95.2691 15.0692 95.2691 15.0692V23.0692Z" fill="white" stroke="black" stroke-width="0.5"/>
<path d="M107 20H103.5V14C103.5 11.5 105 9 110 9C115 9 117 10.5 117 14V23.5C117 24.5 114 24.5 114 23.5V14C114 11 107 11 107 14V20Z" fill="white" stroke="black" stroke-width="0.5"/>
<circle cx="39.5" cy="6" r="1.25" fill="white" stroke="black" stroke-width="0.5"/>
<path d="M53 9C49.5 8.5 45.5 10 45.5 13.5V23.5C45.5 25 49 25 49 23.5V14.5C49 12.5 50.4641 11.9649 53 11.5V9Z" fill="white" stroke="black" stroke-width="0.5"/>
<path d="M63.5 8.59375C59.9999 8.09375 55.9999 9.59375 56 13.0938V23.0938C56 24.5938 59.5 24.5938 59.5 23.0938V14.0938C59.5 12.0938 60.9641 11.5586 63.5 11.0938V8.59375Z" fill="white" stroke="black" stroke-width="0.5"/>
<circle cx="105.5" cy="23" r="1.25" fill="white" stroke="black" stroke-width="0.5"/>
<defs>
<filter id="filter0_d_5_500" x="2.7" y="0.427356" width="18.8613" height="23.9602" filterUnits="userSpaceOnUse" color-interpolation-filters="sRGB">
<feFlood flood-opacity="0" result="BackgroundImageFix"/>
<feColorMatrix in="SourceAlpha" type="matrix" values="0 0 0 0 0 0 0 0 0 0 0 0 0 0 0 0 0 0 127 0" result="hardAlpha"/>
<feOffset dx="-1" dy="-4"/>
<feGaussianBlur stdDeviation="2.15"/>
<feComposite in2="hardAlpha" operator="out"/>
<feColorMatrix type="matrix" values="0 0 0 0 0 0 0 0 0 0 0 0 0 0 0 0 0 0 0.2 0"/>
<feBlend mode="normal" in2="BackgroundImageFix" result="effect1_dropShadow_5_500"/>
<feBlend mode="normal" in="SourceGraphic" in2="effect1_dropShadow_5_500" result="shape"/>
</filter>
</defs>
</svg>
