<svg width="197" height="43" viewBox="0 0 197 43" fill="none" xmlns="http://www.w3.org/2000/svg">
<path d="M0.000305176 6.22461L10.1026 15.485V40.7407L0.000305176 31.4803V6.22461Z" fill="#EF7454"/>
<path d="M23.0584 5.45243L31.2481 13.1888L18.8176 26.3478L13.47 14.6432L23.0584 5.45243Z" fill="#EF7454"/>
<g filter="url(#filter0_d_17_527)">
<path d="M30.7467 33.5121L21.9138 40.5052L13.4696 32.322L13.4696 14.6431L30.7467 33.5121Z" fill="#EF7454"/>
</g>
<path d="M109.441 12.5767C111.125 10.893 116.176 5 117.018 5C117.86 5 122.911 10.893 123.753 12.5767C124.595 14.2604 122.069 15.9441 120.385 14.2604C118.702 12.5767 117.018 9.20927 117.018 9.20927C117.018 9.20927 114.492 12.5767 112.809 14.2604C111.125 15.9441 107.758 14.2604 109.441 12.5767Z" fill="white"/>
<path d="M43.7767 9.20944C43.7767 5.00017 38.7255 5.00018 38.7255 9.20944V38.6744C38.7255 42.0418 43.7767 42.0418 43.7767 38.6744V29.414L53.037 40.3581C55.5626 42.0418 58.93 39.5162 57.2463 36.9907L48.8277 27.7303C48.8277 27.7303 54.7207 22.6791 57.2463 20.1536C59.7719 17.628 56.4044 12.5769 52.1952 15.9443C49.6282 17.9979 46.1219 21.6169 43.7767 24.1283V9.20944Z" fill="white"/>
<rect x="63.9813" y="14.2604" width="5.05113" height="26.9394" rx="2.52557" fill="white"/>
<rect x="114.492" y="14.2604" width="5.05113" height="26.9394" rx="2.52557" fill="white"/>
<path d="M133.013 18.4696C133.013 15.1022 127.12 15.1023 127.12 18.4696V40.3579C127.12 43.7253 129.646 43.7253 132.171 41.1997C134.697 38.6742 148.167 23.5207 149.85 20.1533C151.534 16.7859 148.167 15.1022 145.641 17.6278C143.116 20.1533 133.013 31.9393 133.013 31.9393V18.4696Z" fill="white"/>
<path d="M160.406 38.7911C160.406 42.1585 166.299 42.1585 166.299 38.7911V16.9029C166.299 13.5355 163.773 13.5355 161.247 16.061C158.722 18.5866 145.252 33.74 143.568 37.1074C141.885 40.4748 145.252 42.1585 147.778 39.633C150.303 37.1074 160.406 25.3214 160.406 25.3214V38.7911Z" fill="white"/>
<path d="M180.157 33.6232H174.264C174.264 33.6232 174.264 27.7302 174.264 23.521C174.264 19.3117 176.79 15.1024 185.208 15.1024C193.627 15.1024 196.994 17.628 196.994 23.521V39.5162C196.994 41.1999 191.943 41.1999 191.943 39.5162V23.521C191.943 18.4698 180.157 18.4698 180.157 23.521V33.6232Z" fill="white"/>
<circle cx="66.5069" cy="10.0509" r="2.52557" fill="white"/>
<path d="M89.2369 15.1022C83.3439 14.2603 76.609 16.7859 76.6091 22.6789V39.516C76.6091 42.0415 82.5021 42.0415 82.5021 39.516V24.3626C82.5021 20.9952 84.9672 20.0941 89.2369 19.3115V15.1022Z" fill="white"/>
<path d="M106.916 14.4182C101.023 13.5764 94.2878 16.1019 94.2878 21.9949V38.832C94.2878 41.3576 100.181 41.3576 100.181 38.832V23.6786C100.181 20.3112 102.646 19.4102 106.916 18.6275V14.4182Z" fill="white"/>
<circle cx="177.632" cy="38.6741" r="2.52557" fill="white"/>
<defs>
<filter id="filter0_d_17_527" x="4.54594" y="0.668273" width="31.757" height="40.3421" filterUnits="userSpaceOnUse" color-interpolation-filters="sRGB">
<feFlood flood-opacity="0" result="BackgroundImageFix"/>
<feColorMatrix in="SourceAlpha" type="matrix" values="0 0 0 0 0 0 0 0 0 0 0 0 0 0 0 0 0 0 127 0" result="hardAlpha"/>
<feOffset dx="-1.68371" dy="-6.73484"/>
<feGaussianBlur stdDeviation="3.61998"/>
<feComposite in2="hardAlpha" operator="out"/>
<feColorMatrix type="matrix" values="0 0 0 0 0 0 0 0 0 0 0 0 0 0 0 0 0 0 0.2 0"/>
<feBlend mode="normal" in2="BackgroundImageFix" result="effect1_dropShadow_17_527"/>
<feBlend mode="normal" in="SourceGraphic" in2="effect1_dropShadow_17_527" result="shape"/>
</filter>
</defs>
</svg>
